<svg width="19" height="19" viewBox="0 0 19 19" fill="none" xmlns="http://www.w3.org/2000/svg">
<path d="M9.5 5.66667V9.5L12.375 12.375M18.125 9.5C18.125 10.6327 17.9019 11.7542 17.4685 12.8006C17.035 13.8471 16.3997 14.7979 15.5988 15.5988C14.7979 16.3997 13.8471 17.035 12.8006 17.4685C11.7542 17.9019 10.6327 18.125 9.5 18.125C8.36735 18.125 7.24579 17.9019 6.19936 17.4685C5.15292 17.035 4.20211 16.3997 3.4012 15.5988C2.6003 14.7979 1.96499 13.8471 1.53154 12.8006C1.09809 11.7542 0.875 10.6327 0.875 9.5C0.875 7.21251 1.7837 5.01871 3.4012 3.4012C5.0187 1.7837 7.21251 0.875 9.5 0.875C11.7875 0.875 13.9813 1.7837 15.5988 3.4012C17.2163 5.01871 18.125 7.21251 18.125 9.5Z" stroke="#808080" stroke-width="1.4375" stroke-linecap="round" stroke-linejoin="round"/>
</svg>
